<?xml version="1.0" encoding="UTF-8"?>
<svg version="1.1" xmlns="http://www.w3.org/2000/svg" width="512" height="512">
<path d="M0 0 C-1.39222495 6.77236042 -3.25501668 13.24638061 -5.4206543 19.80883789 C-5.76083084 20.85068741 -6.10100739 21.89253693 -6.45149231 22.96595764 C-7.57043575 26.38662231 -8.69645827 29.80488892 -9.82421875 33.22265625 C-10.2108198 34.39593412 -10.59742085 35.569212 -10.99573708 36.77804375 C-12.83071198 42.34418729 -14.66952026 47.90903788 -16.5139882 53.4720431 C-18.63282513 59.86318982 -20.73558272 66.25933915 -22.82502431 72.6601544 C-24.64486285 78.23099337 -26.4862612 83.79452659 -28.3351841 89.35577202 C-29.11479015 91.71101029 -29.8878059 94.06844103 -30.6539669 96.42808723 C-31.72841912 99.73198596 -32.8273554 103.02677583 -33.93237305 106.32055664 C-34.24069061 107.28753479 -34.54900818 108.25451294 -34.8666687 109.25079346 C-37.79857483 117.8362488 -42.91633233 123.41579378 -49.6875 129.3125 C-53.45039102 132.6313585 -57.18225383 135.97834482 -60.875 139.375 C-61.89061582 140.30730167 -62.90624089 141.23959326 -63.921875 142.171875 C-64.94796942 143.11452591 -65.97401095 144.0572344 -67 145 C-78.27660846 155.36190257 -78.27660846 155.36190257 -83.9375 160.4375 C-88.39286804 164.43517373 -92.79083519 168.49200885 -97.18334961 172.55834961 C-101.22449884 176.29526882 -105.30710596 179.98299106 -109.40625 183.65625 C-112.45891681 186.41468387 -115.48082656 189.20502044 -118.5 192 C-123.12619807 196.28227279 -127.78678675 200.52207859 -132.48046875 204.73046875 C-137.35210245 209.11871554 -142.17212324 213.56373809 -147 218 C-158.27660846 228.36190257 -158.27660846 228.36190257 -163.9375 233.4375 C-168.39286804 237.43517373 -172.79083519 241.49200885 -177.18334961 245.55834961 C-181.22449884 249.29526882 -185.30710596 252.98299106 -189.40625 256.65625 C-192.45891652 259.4146836 -195.48084295 262.2050031 -198.5 265 C-203.1004154 269.25885323 -207.7373365 273.47241842 -212.40625 277.65625 C-215.45891652 280.4146836 -218.48084295 283.2050031 -221.5 286 C-226.1004154 290.25885323 -230.7373365 294.47241842 -235.40625 298.65625 C-238.45891681 301.41468387 -241.48082656 304.20502044 -244.5 307 C-249.12619807 311.28227279 -253.78678675 315.52207859 -258.48046875 319.73046875 C-263.35210245 324.11871554 -268.17212324 328.56373809 -273 333 C-279.46240728 338.93820694 -285.93169204 344.8668663 -292.47265625 350.71875 C-294.32774883 352.3932076 -296.16693252 354.07894335 -297.99609375 355.78125 C-298.49681396 356.2445874 -298.99753418 356.7079248 -299.51342773 357.18530273 C-300.92873644 358.49647968 -302.3394923 359.81256597 -303.75 361.12890625 C-306 363 -306 363 -308 363 C-309.38525391 361.17089844 -309.38525391 361.17089844 -310.9765625 358.609375 C-311.85151367 357.21235352 -311.85151367 357.21235352 -312.74414062 355.78710938 C-313.36482422 354.78486328 -313.98550781 353.78261719 -314.625 352.75 C-315.59083008 351.23116211 -315.59083008 351.23116211 -316.57617188 349.68164062 C-321.94071577 341.23614534 -321.94071577 341.23614534 -323.9296875 337.359375 C-329.46545393 327.27932269 -339.53727385 322.36153352 -349.15869141 316.69677734 C-353.83840041 313.90214101 -358.41759081 310.95063801 -363 308 C-361.68383888 305.10940624 -360.24755763 302.97437707 -358.05859375 300.6796875 C-357.19004761 299.76086792 -357.19004761 299.76086792 -356.30395508 298.82348633 C-355.38005981 297.8589856 -355.38005981 297.8589856 -354.4375 296.875 C-353.15818081 295.52277215 -351.87953451 294.16990737 -350.6015625 292.81640625 C-349.98055664 292.16043457 -349.35955078 291.50446289 -348.71972656 290.82861328 C-345.82509427 287.75070359 -343.01544409 284.59860199 -340.19921875 281.44921875 C-337.69264435 278.65770517 -335.16188649 275.88892475 -332.625 273.125 C-332.16472412 272.62347412 -331.70444824 272.12194824 -331.23022461 271.60522461 C-329.3487045 269.55596319 -327.46632592 267.50749124 -325.58398438 265.45898438 C-320.86774437 260.32526255 -316.15717409 255.18752843 -311.5 250 C-305.91080217 243.77430989 -300.24475942 237.61946922 -294.58398438 231.45898438 C-289.8876188 226.34689626 -285.1967486 221.23114844 -280.5625 216.0625 C-276.56482627 211.60713196 -272.50799115 207.20916481 -268.44165039 202.81665039 C-265.43603927 199.56634649 -262.45448076 196.29702925 -259.5 193 C-255.52469946 188.56379505 -251.48792332 184.18745602 -247.44140625 179.81640625 C-244.43589278 176.56616903 -241.45440391 173.2969435 -238.5 170 C-234.52469946 165.56379505 -230.48792332 161.18745602 -226.44140625 156.81640625 C-223.43589278 153.56616903 -220.45440391 150.2969435 -217.5 147 C-214.03510167 143.13337433 -210.52695432 139.30986214 -207 135.5 C-202.71772721 130.87380193 -198.47792141 126.21321325 -194.26953125 121.51953125 C-189.41443591 116.12962334 -184.49220458 110.80048195 -179.58398438 105.45898438 C-174.8876188 100.34689626 -170.1967486 95.23114844 -165.5625 90.0625 C-161.56482627 85.60713196 -157.50799115 81.20916481 -153.44165039 76.81665039 C-150.43603927 73.56634649 -147.45448076 70.29702925 -144.5 67 C-140.57736481 62.62256653 -136.59951598 58.29892097 -132.59960938 53.9921875 C-132.13361328 53.48945312 -131.66761719 52.98671875 -131.1875 52.46875 C-130.68299316 51.93757568 -130.17848633 51.40640137 -129.65869141 50.85913086 C-127.91330253 48.95766868 -127.91330253 48.95766868 -126.19677734 46.58032227 C-119.68343604 38.28842734 -112.30238515 35.90021053 -102.625 32.9375 C-100.9128252 32.38728447 -99.20176629 31.83358725 -97.49169922 31.27685547 C-94.5653389 30.32624882 -91.63785585 29.38006715 -88.70632935 28.44549561 C-78.6756547 25.247126 -68.69704302 21.90050178 -58.71875 18.54296875 C-57.01430763 17.97016493 -55.30982959 17.39746722 -53.60531616 16.82487488 C-52.75718164 16.53996217 -51.90904713 16.25504946 -51.03521156 15.96150303 C-49.75973741 15.53305293 -49.75973741 15.53305293 -48.45849609 15.09594727 C-47.60647299 14.80971213 -46.75444988 14.523477 -45.87660789 14.22856808 C-43.29278106 13.36058557 -40.70889847 12.49276922 -38.125 11.625 C-37.26876289 11.33737164 -36.41252579 11.04974327 -35.5303421 10.7533989 C-30.55049012 9.08120139 -25.56906795 7.41383257 -20.58531189 5.75330544 C-19.04239407 5.23839638 -17.50001745 4.72186254 -15.95820618 4.20364952 C-13.83174453 3.48916121 -11.70349906 2.7802632 -9.57470703 2.07275391 C-8.37266632 1.67085846 -7.17062561 1.26896301 -5.93215942 0.85488892 C-3 0 -3 0 0 0 Z " fill="#000000" transform="translate(512,0)"/>
<path d="M0 0 C3.24080493 1.20182321 5.94707169 2.49022455 8.72265625 4.546875 C9.41560791 5.05484619 10.10855957 5.56281738 10.82250977 6.08618164 C11.93130493 6.90977173 11.93130493 6.90977173 13.0625 7.75 C14.67612076 8.93230443 16.29074077 10.11324605 17.90625 11.29296875 C18.74285156 11.90446777 19.57945313 12.5159668 20.44140625 13.14599609 C24.6130505 16.16884594 28.83619036 19.11679087 33.0625 22.0625 C34.74743524 23.23822478 36.43233136 24.41400562 38.1171875 25.58984375 C38.93541992 26.1607373 39.75365234 26.73163086 40.59667969 27.31982422 C44.30174479 29.91005766 47.99552628 32.51615377 51.6875 35.125 C52.377229 35.61234619 53.06695801 36.09969238 53.77758789 36.60180664 C55.15958101 37.57850604 56.54149869 38.55531218 57.92333984 39.53222656 C60.73757199 41.52131234 63.55276474 43.50902793 66.36962891 45.49438477 C67.78732841 46.49632756 69.20238702 47.50201778 70.61474609 48.51147461 C74.16593793 51.04271301 77.74016145 53.49223543 81.42578125 55.82421875 C91.69064222 62.43970507 98.07294877 69.50936672 104.58056641 79.79443359 C106.93232582 83.44868103 109.4736222 86.96535702 112 90.5 C113.00092646 91.91601224 114.00092668 93.33267966 115 94.75 C115.495 95.45125 115.99 96.1525 116.5 96.875 C133 120.25 133 120.25 134.50170898 122.37744141 C135.49598678 123.78598812 136.49028993 125.19451693 137.48461914 126.60302734 C140.07238316 130.2687787 142.6596305 133.93489322 145.24609375 137.6015625 C145.78041016 138.35888672 146.31472656 139.11621094 146.86523438 139.89648438 C147.87842055 141.33256565 148.89145323 142.76875525 149.90429688 144.20507812 C152.92125376 148.48084873 155.95472262 152.74434921 159 157 C157.41291345 160.85978995 154.80296121 163.53587211 151.9140625 166.45703125 C151.41587006 166.96425217 150.91767761 167.47147308 150.40438843 167.99406433 C149.35305388 169.0598617 148.29892403 170.12290806 147.2421875 171.18334961 C145.62503039 172.81246938 144.02746275 174.45931719 142.4296875 176.10742188 C141.40479838 177.14176828 140.37879397 178.17501104 139.3515625 179.20703125 C138.87538483 179.70274124 138.39920715 180.19845123 137.90859985 180.70918274 C136.53369141 182.06567383 136.53369141 182.06567383 134 184 C129.86120755 183.81143792 127.78509254 181.11565472 125.01953125 178.28076172 C124.53769379 177.79133087 124.05585632 177.30190002 123.55941772 176.79763794 C122.51616033 175.7362949 121.47632384 174.67158078 120.43954468 173.60390854 C118.79924463 171.91604779 117.1489172 170.23862136 115.49536133 168.56375122 C110.79682754 163.80100017 106.11689576 159.02015879 101.44433594 154.23193359 C98.58434858 151.30258345 95.71239498 148.38541034 92.83285522 145.47528458 C91.73718184 144.36280217 90.6463501 143.24553015 89.56045532 142.12350082 C88.0449205 140.55774235 86.51477991 139.00778013 84.98046875 137.46044922 C83.67952271 136.12927567 83.67952271 136.12927567 82.35229492 134.77120972 C80.19551572 132.74533169 80.19551572 132.74533169 77.79600525 133.14945984 C75.79022085 134.09934581 74.26712596 135.16189694 72.56640625 136.58984375 C71.92429199 137.12174316 71.28217773 137.65364258 70.62060547 138.20166016 C69.94143066 138.7744873 69.26225586 139.34731445 68.5625 139.9375 C67.11961241 141.13286705 65.67558787 142.32686295 64.23046875 143.51953125 C63.5142334 144.1120166 62.79799805 144.70450195 62.06005859 145.31494141 C58.18225968 148.4868504 54.18918648 151.50356791 50.20703125 154.54296875 C46.80145877 157.1440258 43.42960435 159.78691993 40.0625 162.4375 C39.48097168 162.89527832 38.89944336 163.35305664 38.30029297 163.82470703 C37.1220986 164.75259621 35.94403901 165.68065654 34.76611328 166.60888672 C31.84628949 168.9087424 28.92296738 171.20414198 26 173.5 C24.84504084 174.40753777 23.69009295 175.31508989 22.53515625 176.22265625 C20.08511052 178.14774113 17.63450592 180.07211212 15.18359375 181.99609375 C14.55646484 182.48851562 13.92933594 182.9809375 13.28320312 183.48828125 C12.09064001 184.42466414 10.89794118 185.36087423 9.70507812 186.296875 C8.13537859 187.52954533 6.56763813 188.76470916 5 190 C4.0615625 190.6084375 3.123125 191.216875 2.15625 191.84375 C-0.8069965 194.8069965 -0.75908224 197.58313 -0.9375 201.5625 C-1.8694806 212.29852717 -6.06460113 219.97771379 -13.9921875 227.34765625 C-23.09479782 234.83871494 -33.53089599 235.93691626 -44.91992188 235.22949219 C-54.65480851 234.1554554 -62.8241111 228.33866728 -69 221 C-75.63305976 210.12502422 -77.88737187 198.9570012 -75.50390625 186.3828125 C-71.70581889 175.69666841 -64.15985369 166.88226167 -53.9921875 161.9375 C-50.99371178 160.9980298 -48.37326777 160.83960376 -45.24829102 160.76367188 C-39.53559016 160.55251648 -35.55260864 160.01252801 -31.43359375 155.78125 C-28.54154917 152.38119468 -25.96111824 148.77528107 -23.44335938 145.09228516 C-21.37295453 142.09103862 -19.12437573 139.24271933 -16.875 136.375 C-16.07707031 135.32957031 -15.27914062 134.28414062 -14.45703125 133.20703125 C-10.49080767 128.01404178 -6.43119905 122.89379039 -2.38671875 117.76171875 C-1.01582318 116.02010212 0.35199991 114.27612115 1.71875 112.53125 C7.55898029 105.07782392 13.44784519 97.66497065 19.37109375 90.27734375 C19.81565918 89.71644043 20.26022461 89.15553711 20.71826172 88.57763672 C21.90332547 87.11899254 23.15438875 85.71464332 24.41015625 84.31640625 C26.20015522 82.21510818 26.20015522 82.21510818 25.89431763 80.16650391 C24.62333694 77.08752555 22.662262 75.34278824 20.28076172 73.01953125 C19.54661545 72.29677505 19.54661545 72.29677505 18.79763794 71.55941772 C17.7362949 70.51616033 16.67158078 69.47632384 15.60390854 68.43954468 C13.91604779 66.79924463 12.23862136 65.1489172 10.56375122 63.49536133 C5.80100017 58.79682754 1.02015879 54.11689576 -3.76806641 49.44433594 C-6.69741655 46.58434858 -9.61458966 43.71239498 -12.52471542 40.83285522 C-13.63719783 39.73718184 -14.75446985 38.6463501 -15.87649918 37.56045532 C-17.44225765 36.0449205 -18.99221987 34.51477991 -20.53955078 32.98046875 C-21.42699982 32.11317139 -22.31444885 31.24587402 -23.22879028 30.35229492 C-25 28 -25 28 -24.92356873 25.85479736 C-23.42237262 22.83995451 -21.04069758 20.67658559 -18.65234375 18.359375 C-18.12105362 17.83232971 -17.58976349 17.30528442 -17.04237366 16.76226807 C-15.34767175 15.08432813 -13.64282783 13.41713272 -11.9375 11.75 C-10.78512255 10.61267255 -9.63342148 9.47465934 -8.48242188 8.3359375 C-5.66272816 5.54928008 -2.83389412 2.77221208 0 0 Z " fill="#000000" transform="translate(76,277)"/>
</svg>
